<svg width="180" height="180" viewBox="0 0 180 180" fill="none" xmlns="http://www.w3.org/2000/svg">
<rect width="180" height="180" rx="40" fill="white"/>
<path d="M78.11 69.35L77.48 76.55H47.51V60.71H94.94V71.78L63.89 113.54L60.11 106.16H95.3V122H46.88V110.84L78.11 69.35ZM119.31 122.81C114.81 122.81 110.88 121.88 107.52 120.02C104.16 118.16 101.55 115.52 99.6896 112.1C97.8296 108.68 96.8996 104.63 96.8996 99.95C96.8996 95.45 97.8296 91.46 99.6896 87.98C101.55 84.44 104.16 81.68 107.52 79.7C110.88 77.66 114.81 76.64 119.31 76.64C123.99 76.64 127.98 77.72 131.28 79.88C134.64 81.98 137.22 84.77 139.02 88.25C140.82 91.73 141.72 95.54 141.72 99.68C141.72 100.76 141.69 101.75 141.63 102.65C141.57 103.55 141.48 104.24 141.36 104.72H108.42V94.19H128.58L127.77 96.89C127.77 94.55 127.08 92.66 125.7 91.22C124.38 89.78 122.31 89.06 119.49 89.06C116.91 89.06 114.84 89.81 113.28 91.31C111.78 92.75 111.03 94.73 111.03 97.25V102.29C111.03 105.05 111.87 107.15 113.55 108.59C115.29 110.03 117.66 110.75 120.66 110.75C122.94 110.75 124.77 110.33 126.15 109.49C127.59 108.59 128.79 107.48 129.75 106.16L140.28 111.65C138.48 115.01 135.72 117.71 132 119.75C128.34 121.79 124.11 122.81 119.31 122.81Z" fill="#0050FF"/>
</svg>
