<svg width="32" height="32" viewBox="0 0 32 32" fill="none" xmlns="http://www.w3.org/2000/svg">
<circle cx="16" cy="16" r="16" fill="white"/>
<path d="M13.58 11.3L13.44 12.9H6.78V9.38H17.32V11.84L10.42 21.12L9.58 19.48H17.4V23H6.64V20.52L13.58 11.3ZM22.7355 23.18C21.7355 23.18 20.8621 22.9733 20.1155 22.56C19.3688 22.1467 18.7888 21.56 18.3755 20.8C17.9621 20.04 17.7555 19.14 17.7555 18.1C17.7555 17.1 17.9621 16.2133 18.3755 15.44C18.7888 14.6533 19.3688 14.04 20.1155 13.6C20.8621 13.1467 21.7355 12.92 22.7355 12.92C23.7755 12.92 24.6621 13.16 25.3955 13.64C26.1421 14.1067 26.7155 14.7267 27.1155 15.5C27.5155 16.2733 27.7155 17.12 27.7155 18.04C27.7155 18.28 27.7088 18.5 27.6955 18.7C27.6821 18.9 27.6621 19.0533 27.6355 19.16H20.3155V16.82H24.7955L24.6155 17.42C24.6155 16.9 24.4621 16.48 24.1555 16.16C23.8621 15.84 23.4021 15.68 22.7755 15.68C22.2021 15.68 21.7421 15.8467 21.3955 16.18C21.0621 16.5 20.8955 16.94 20.8955 17.5V18.62C20.8955 19.2333 21.0821 19.7 21.4555 20.02C21.8421 20.34 22.3688 20.5 23.0355 20.5C23.5421 20.5 23.9488 20.4067 24.2555 20.22C24.5755 20.02 24.8421 19.7733 25.0555 19.48L27.3955 20.7C26.9955 21.4467 26.3821 22.0467 25.5555 22.5C24.7421 22.9533 23.8021 23.18 22.7355 23.18Z" fill="#0050FF"/>
</svg>
