<svg width="260" height="71" viewBox="0 0 260 71" fill="none" xmlns="http://www.w3.org/2000/svg">
<path d="M28.32 8.2L27.76 14.6H1.12V0.519996H43.28V10.36L15.68 47.48L12.32 40.92H43.6V55H0.56V45.08L28.32 8.2ZM66.5419 55.72C62.5419 55.72 59.0485 54.8933 56.0619 53.24C53.0752 51.5867 50.7552 49.24 49.1019 46.2C47.4485 43.16 46.6219 39.56 46.6219 35.4C46.6219 31.4 47.4485 27.8533 49.1019 24.76C50.7552 21.6133 53.0752 19.16 56.0619 17.4C59.0485 15.5867 62.5419 14.68 66.5419 14.68C70.7019 14.68 74.2485 15.64 77.1819 17.56C80.1685 19.4267 82.4619 21.9067 84.0619 25C85.6619 28.0933 86.4619 31.48 86.4619 35.16C86.4619 36.12 86.4352 37 86.3819 37.8C86.3285 38.6 86.2485 39.2133 86.1419 39.64H56.8619V30.28H74.7819L74.0619 32.68C74.0619 30.6 73.4485 28.92 72.2219 27.64C71.0485 26.36 69.2085 25.72 66.7019 25.72C64.4085 25.72 62.5685 26.3867 61.1819 27.72C59.8485 29 59.1819 30.76 59.1819 33V37.48C59.1819 39.9333 59.9285 41.8 61.4219 43.08C62.9685 44.36 65.0752 45 67.7419 45C69.7685 45 71.3952 44.6267 72.6219 43.88C73.9019 43.08 74.9685 42.0933 75.8219 40.92L85.1819 45.8C83.5819 48.7867 81.1285 51.1867 77.8219 53C74.5685 54.8133 70.8085 55.72 66.5419 55.72Z" fill="#2563EB"/>
<path d="M105.048 56.12C102.168 56.12 99.7942 55.72 97.9275 54.92C96.0608 54.0667 94.5675 52.92 93.4475 51.48C92.3808 50.04 91.6075 48.36 91.1275 46.44C90.7008 44.4667 90.4875 42.36 90.4875 40.12V15.8H104.968V37.64C104.968 39.4 105.288 40.5733 105.928 41.16C106.568 41.6933 107.421 41.96 108.488 41.96C109.181 41.96 109.874 41.88 110.568 41.72C111.261 41.5067 112.008 41.16 112.808 40.68C113.608 40.2 114.488 39.5067 115.448 38.6L118.968 45.64H114.168V15.8H128.728V55H118.088L115.128 46.6L120.648 47.32C119.421 48.7067 117.981 50.0933 116.328 51.48C114.674 52.8133 112.888 53.9333 110.968 54.84C109.101 55.6933 107.128 56.12 105.048 56.12ZM151.261 56.44C147.847 56.44 144.727 55.8533 141.901 54.68C139.074 53.5067 136.327 51.4533 133.661 48.52L140.701 40.36C142.727 42.1733 144.701 43.4533 146.621 44.2C148.541 44.9467 150.407 45.32 152.221 45.32C152.967 45.32 153.607 45.2133 154.141 45C154.727 44.7333 155.021 44.4133 155.021 44.04C155.021 43.6133 154.807 43.2667 154.381 43C154.007 42.68 153.207 42.36 151.981 42.04C150.807 41.72 149.047 41.2667 146.701 40.68C142.327 39.6133 139.181 38.0133 137.261 35.88C135.341 33.7467 134.381 31.1333 134.381 28.04C134.381 25.5333 135.047 23.24 136.381 21.16C137.714 19.08 139.634 17.4267 142.141 16.2C144.647 14.92 147.607 14.28 151.021 14.28C155.127 14.28 158.567 15.0267 161.341 16.52C164.167 17.96 166.567 19.7467 168.541 21.88L160.541 29.32C159.101 28.1467 157.474 27.2667 155.661 26.68C153.847 26.04 151.927 25.72 149.901 25.72C148.941 25.72 148.167 25.8267 147.581 26.04C147.047 26.2533 146.781 26.5733 146.781 27C146.781 27.3733 147.234 27.72 148.141 28.04C149.047 28.36 150.967 28.8933 153.901 29.64C158.861 30.8133 162.461 32.4667 164.701 34.6C166.941 36.7333 168.061 39.6133 168.061 43.24C168.061 45.8 167.367 48.0933 165.981 50.12C164.594 52.0933 162.647 53.64 160.141 54.76C157.634 55.88 154.674 56.44 151.261 56.44ZM182.448 35.32V33.56L197.808 15.8H213.648L196.928 35.24V32.6L214.208 55H197.568L182.448 35.32ZM172.768 0.519996H187.248V55H172.768V0.519996ZM229.709 53.56L213.789 15.8H228.269L244.109 53.4L229.709 53.56ZM222.749 70.2L245.469 15.8H259.949L237.229 70.2H222.749Z" fill="#52525B"/>
</svg>
